<svg xmlns="http://www.w3.org/2000/svg" version="1.1" xmlns:xlink="http://www.w3.org/1999/xlink" xmlns:svgjs="http://svgjs.dev/svgjs" width="1000" height="1000" viewBox="0 0 1000 1000"><g transform="matrix(1,0,0,1,-0.49999999999994316,-0.49999999999994316)"><svg viewBox="0 0 280 280" data-background-color="#ffffff" preserveAspectRatio="xMidYMid meet" height="1000" width="1000" xmlns="http://www.w3.org/2000/svg" xmlns:xlink="http://www.w3.org/1999/xlink"><g id="tight-bounds" transform="matrix(1,0,0,1,0.13999999999998636,0.13999999999998636)"><svg viewBox="0 0 279.72 279.72" height="279.72" width="279.72"><g><svg viewBox="0 0 279.72 279.72" height="279.72" width="279.72"><g><svg viewBox="0 0 279.72 279.72" height="279.72" width="279.72"><g id="textblocktransform"><svg viewBox="0 0 279.72 279.72" height="279.72" width="279.72" id="textblock"><g><svg viewBox="0 0 279.72 279.72" height="279.72" width="279.72"><g transform="matrix(1,0,0,1,57.446704652707865,57.446704652707865)"><svg viewBox="0 0 164.8265906945843 164.8265906945843" height="164.8265906945843" width="164.8265906945843"><g><circle r="82" cx="82.41329534729215" cy="82.41329534729215" fill="#fbb168" data-fill-palette-color="accent"></circle><svg xmlns="http://www.w3.org/2000/svg" xmlns:xlink="http://www.w3.org/1999/xlink" version="1.1" x="24.723988604187646" y="24.72398860418764" viewBox="22.517221928202165 20.686431729031113 330.86555614359565 248.71725634901313" style="enable-background:new 0 0 390 289;" xml:space="preserve" height="115.378613486209" width="115.378613486209" class="icon-xg-0" data-fill-palette-color="quaternary" id="xg-0"><path class="" d="M182 203.4c0 7.6-2.7 14.6-2.7 14.6-3 7-21.6 51-61.6 51.4-34.4 0.4-64.2-31.8-64.2-66 0-42.7 46-72.8 64.2-66 12.5 4.6 14.1 27.2 33.2 31.6 6.5 1.5 8.4-0.7 14 2C177.7 177 182 194.4 182 203.4z" stroke="#ffffff" stroke-miterlimit="10" fill="#ffffff" data-fill-palette-color="quaternary"></path><path class="" d="M108 171.4L108 171.4c6.1-2.4 9.2-9.4 6.8-15.6L64.4 28.5c-2.4-6.1-9.4-9.2-15.6-6.8l0 0c-6.1 2.4-9.2 9.4-6.8 15.6l50.3 127.3C94.8 170.7 101.8 173.8 108 171.4z" stroke="#ffffff" stroke-miterlimit="10" fill="#ffffff" data-fill-palette-color="quaternary"></path><path class="" d="M85.2 188L85.2 188c-6.1 2.5-13.1-0.5-15.6-6.6l-41.7-103c-2.5-6.1 0.5-13.1 6.6-15.6l0 0c6.1-2.5 13.1 0.5 15.6 6.6l41.7 103C94.3 178.5 91.4 185.6 85.2 188z" stroke="#ffffff" stroke-miterlimit="10" fill="#ffffff" data-fill-palette-color="quaternary"></path><path class="" d="M74.9 235L74.9 235c-6.1 2.5-13.1-0.5-15.6-6.6l-35.9-88.7c-2.5-6.1 0.5-13.1 6.6-15.6l0 0c6.1-2.5 13.1 0.5 15.6 6.6l35.9 88.7C84 225.5 81 232.6 74.9 235z" stroke="#ffffff" stroke-miterlimit="10" fill="#ffffff" data-fill-palette-color="quaternary"></path><path class="" d="M146.1 189.4L146.1 189.4c6.1-2.4 9.2-9.4 6.8-15.6L102.6 46.5c-2.4-6.1-9.4-9.2-15.6-6.8l0 0c-6.1 2.4-9.2 9.4-6.8 15.6l50.3 127.3C133 188.7 140 191.8 146.1 189.4z" stroke="#ffffff" stroke-miterlimit="10" fill="#ffffff" data-fill-palette-color="quaternary"></path><path class="" d="M160.6 231l-7.9-3c-6.2-2.3-9.3-9.3-7-15.5 9.2-24.5 18.5-49 27.7-73.5 1.1-2.1 3.9-6.8 9.5-10 3.2-1.8 6.2-2.5 8.3-2.8 1 0.2 2.1 0.4 3.2 0.8 1.9 0.6 3.5 1.4 4.6 2.2 1.9 2.1 4.4 5.3 5.4 9.8 1.3 5.7-0.3 10.3-1 12-9.1 24.3-18.3 48.7-27.4 73C173.7 230.2 166.8 233.3 160.6 231z" stroke="#ffffff" stroke-miterlimit="10" fill="#ffffff" data-fill-palette-color="quaternary"></path><path class="" d="M264.7 208.9" stroke="#ffffff" stroke-miterlimit="10" fill="#ffffff" data-fill-palette-color="quaternary"></path><path class="" d="M194.4 220.5" stroke="#ffffff" stroke-miterlimit="10" fill="#ffffff" data-fill-palette-color="quaternary"></path><path class="" d="M198 203.3c0 7.6 2.7 14.6 2.7 14.6 3 7 21.6 51 61.6 51.4 34.4 0.4 64.2-31.8 64.2-66 0-42.7-46-72.8-64.2-66-12.5 4.6-14.1 27.2-33.2 31.6-6.5 1.5-8.4-0.7-14 2C202.3 176.8 198 194.2 198 203.3z" stroke="#ffffff" stroke-miterlimit="10" fill="#ffffff" data-fill-palette-color="quaternary"></path><path class="" d="M272 171.2L272 171.2c-6.1-2.4-9.2-9.4-6.8-15.6l50.3-127.3c2.4-6.1 9.4-9.2 15.6-6.8l0 0c6.1 2.4 9.2 9.4 6.8 15.6l-50.3 127.3C285.1 170.6 278.1 173.6 272 171.2z" stroke="#ffffff" stroke-miterlimit="10" fill="#ffffff" data-fill-palette-color="quaternary"></path><path class="" d="M294.7 187.9L294.7 187.9c6.1 2.5 13.1-0.5 15.6-6.6l41.7-103c2.5-6.1-0.5-13.1-6.6-15.6l0 0c-6.1-2.5-13.1 0.5-15.6 6.6l-41.7 103C285.6 178.4 288.6 185.4 294.7 187.9z" stroke="#ffffff" stroke-miterlimit="10" fill="#ffffff" data-fill-palette-color="quaternary"></path><path class="" d="M305 234.9L305 234.9c6.1 2.5 13.1-0.5 15.6-6.6l31.9-78.6c2.5-6.1-0.5-13.1-6.6-15.6h0c-6.1-2.5-13.1 0.5-15.6 6.6l-31.9 78.6C295.9 225.4 298.9 232.4 305 234.9z" stroke="#ffffff" stroke-miterlimit="10" fill="#ffffff" data-fill-palette-color="quaternary"></path><path class="" d="M233.8 189.2L233.8 189.2c-6.1-2.4-9.2-9.4-6.8-15.6l50.3-127.3c2.4-6.1 9.4-9.2 15.6-6.8l0 0c6.1 2.4 9.2 9.4 6.8 15.6l-50.3 127.3C247 188.6 240 191.6 233.8 189.2z" stroke="#ffffff" stroke-miterlimit="10" fill="#ffffff" data-fill-palette-color="quaternary"></path><path class="" d="M219.4 230.8l7.9-3c6.2-2.3 9.3-9.3 7-15.5-9.2-24.5-18.5-49-27.7-73.5-1.1-2.1-3.9-6.8-9.5-10-3.2-1.8-6.2-2.5-8.3-2.8-1 0.2-2.1 0.4-3.2 0.8-1.9 0.6-3.5 1.4-4.6 2.2-1.9 2.1-4.4 5.3-5.4 9.8-1.3 5.7 0.3 10.3 1 12 9.1 24.3 18.3 48.7 27.4 73C206.2 230 213.2 233.2 219.4 230.8z" stroke="#ffffff" stroke-miterlimit="10" fill="#ffffff" data-fill-palette-color="quaternary"></path><path class="" d="M185.6 240.7" stroke="#ffffff" stroke-miterlimit="10" fill="#ffffff" data-fill-palette-color="quaternary"></path><path class="" d="M208.8 145c0 23.2-8.4 41.9-18.8 41.9" fill="none" stroke="#ffffff" stroke-miterlimit="10"></path></svg></g></svg></g><g><path d="M130.021 0.82l6.573 19.208 3.312-11.565-2.424-7.657-2.29 0.004-0.001-0.763 12.442-0.023 0.001 0.763-2.37 0.004 6.021 18.968 4.774-18.988-4.047 0.007-0.001-0.763 8.023-0.015 0.002 0.763-2.651 0.005-7.328 27.74-3.575 0.007-5.969-18.125-5.188 18.146-3.484 0.006-10.165-27.706-1.888 0.004-0.001-0.763 13.044-0.025 0.001 0.763z" fill="#3c2c32" data-fill-palette-color="primary"></path><path d="M130.089 251.957l6.501 19.232 3.356-11.552-2.395-7.666-2.29-0.005 0.001-0.763 12.442 0.024-0.001 0.763-2.37-0.005 5.949 18.991 4.846-18.97-4.047-0.008 0.002-0.763 8.023 0.015-0.001 0.763-2.651-0.005-7.434 27.712-3.575-0.007-5.9-18.147-5.256 18.126-3.485-0.006-10.059-27.745-1.888-0.004 0.001-0.763 13.045 0.025-0.002 0.763z" fill="#3c2c32" data-fill-palette-color="primary"></path><path d="M10.238 144.162c0-1.778 1.441-3.219 3.218-3.218 1.778 0 3.219 1.441 3.219 3.218 0 1.778-1.441 3.219-3.219 3.219-1.778 0-3.219-1.441-3.218-3.219z" fill="#3c2c32" data-fill-palette-color="primary"></path><path d="M263.045 144.162c0-1.778 1.441-3.219 3.219-3.218 1.778 0 3.219 1.441 3.218 3.218 0 1.778-1.441 3.219-3.218 3.219-1.778 0-3.219-1.441-3.219-3.219z" fill="#3c2c32" data-fill-palette-color="primary"></path></g></svg></g></svg></g></svg></g><g></g></svg></g><defs></defs></svg><rect width="279.72" height="279.72" fill="none" stroke="none" visibility="hidden"></rect></g></svg></g></svg>